<svg id="f97318be-69cf-4da4-a755-1836f4bba874" data-name="FIZ-Logo + FIZ-Produktlogos" xmlns="http://www.w3.org/2000/svg" viewBox="0 0 343 60"><defs><style>.a4560888-e72e-49f5-8fda-cab8a460a609{fill:#434245;}.a967e4e4-b676-46ea-96ec-c5aa1412d5a5{fill:#444346;}.bef6f88a-cb25-4e17-96da-37f5673ba186{fill:#a62055;}</style></defs><g id="ad64d2fd-e7d6-4fd0-a472-5f30ed6dbe8f" data-name="FIZ-Produktlogos"><g id="ab364565-672f-433f-84dc-0a452c8ecb9c" data-name="ICSD"><g id="ab6304e1-76ac-4d96-99c7-91a3882aeaf3" data-name="ohne unterzeile"><path class="a4560888-e72e-49f5-8fda-cab8a460a609" d="M30,40V20.49h4.11V40Z"/><path class="a4560888-e72e-49f5-8fda-cab8a460a609" d="M46.87,40.38a8,8,0,0,1-6.39-2.7,10.19,10.19,0,0,1-2.36-7,12.5,12.5,0,0,1,1.32-6.07,8.38,8.38,0,0,1,7.48-4.53,8.05,8.05,0,0,1,5,1.54L50.1,24.29A5.14,5.14,0,0,0,47,23.19a4.05,4.05,0,0,0-3.32,1.69,9,9,0,0,0-1.1,5c0,2.68.23,4.17.82,5.24a4.07,4.07,0,0,0,3.77,2.19,5.12,5.12,0,0,0,3.35-1.26l1.8,2.47A8,8,0,0,1,46.87,40.38Z"/><path class="a4560888-e72e-49f5-8fda-cab8a460a609" d="M61.75,40.47a13.92,13.92,0,0,1-6.66-1.78l1.46-3.06a11.15,11.15,0,0,0,5.37,1.57c2.25,0,3.44-.93,3.44-2.67,0-1.27-.82-2.05-2.56-2.53l-2.17-.59a6,6,0,0,1-3.86-2.48A5.69,5.69,0,0,1,56,26c0-3.58,2.87-6.05,7-6.05a11.42,11.42,0,0,1,6.52,2l-1.85,2.81a8.45,8.45,0,0,0-4.56-1.49c-1.61,0-2.73.93-2.73,2.25,0,1,.53,1.52,2.16,2l2.37.65c3.21.87,5,2.92,5,5.82C69.83,37.85,66.62,40.47,61.75,40.47Z"/><path class="a4560888-e72e-49f5-8fda-cab8a460a609" d="M85.62,37.12a6.71,6.71,0,0,1-4.76,2.81c-.73.06-1.66.11-2.81.11H73.29V20.49h3.94c1.13,0,2.62.05,3.41.11a6.62,6.62,0,0,1,4.27,1.94c1.8,1.78,2.68,4.28,2.68,7.8A11.2,11.2,0,0,1,85.62,37.12Zm-3.44-11.9a3.22,3.22,0,0,0-3.09-1.64h-1.8V36.84H79.4c2.59,0,3.77-2,3.77-6.14C83.17,28.42,83,26.51,82.18,25.22Z"/></g></g><g id="ff328ef5-c0fd-4d70-b3aa-cca0972266d5" data-name="produkt-unterzeilen"><g id="bd3777dd-655a-472c-8940-fb10122cc009" data-name="englisch"><g id="b35012a6-19c3-4821-bf33-0dae06fd5fe1" data-name="englisch"><path class="a967e4e4-b676-46ea-96ec-c5aa1412d5a5" d="M34.28,52.4H31.57v2h2.17v1.4H31.57v3.79H29.85V51h4.63Z"/><path class="a967e4e4-b676-46ea-96ec-c5aa1412d5a5" d="M35.52,59.54V51h1.8v8.53Z"/><path class="a967e4e4-b676-46ea-96ec-c5aa1412d5a5" d="M44.18,59.54H38.85v-1.2L42,53.15a7.44,7.44,0,0,1,.53-.78,5.91,5.91,0,0,1-.88.06H39L39.4,51h5.12v1.24l-3.17,5.34a4.8,4.8,0,0,1-.45.6s.51,0,.85,0h2.88Z"/><path class="a4560888-e72e-49f5-8fda-cab8a460a609" d="M48.62,59.52V51.13h1v8.39Zm2.23-4.45,3.37,4.45H52.93l-3.22-4.44L53,51.13h1.29Z"/><path class="a4560888-e72e-49f5-8fda-cab8a460a609" d="M59.33,59.78a1.19,1.19,0,0,1-.53-.34,1.45,1.45,0,0,1-.3-.56,2.79,2.79,0,0,1-.84.63,2,2,0,0,1-.92.19,2.37,2.37,0,0,1-.94-.16,1.7,1.7,0,0,1-.61-.4,1.35,1.35,0,0,1-.31-.56,2.27,2.27,0,0,1-.09-.62,1.84,1.84,0,0,1,.84-1.62,4.22,4.22,0,0,1,2.4-.58h.43v-.42a4.6,4.6,0,0,0,0-.61.61.61,0,0,0-.17-.34.78.78,0,0,0-.35-.25,1.15,1.15,0,0,0-.48-.08,2.59,2.59,0,0,0-.54,0,3.47,3.47,0,0,0-.55.16,4.48,4.48,0,0,0-.49.23,2.08,2.08,0,0,0-.38.27L55,54.09a4.52,4.52,0,0,1,2.56-.82,1.62,1.62,0,0,1,1.69,1,1.91,1.91,0,0,1,.13.59c0,.22,0,.48,0,.76l-.05,2c0,.25,0,.45,0,.62a1.52,1.52,0,0,0,.07.41.7.7,0,0,0,.15.27,1,1,0,0,0,.27.2ZM58.2,56.42H58a4,4,0,0,0-1,.1,1.75,1.75,0,0,0-.66.28,1,1,0,0,0-.36.46,1.66,1.66,0,0,0-.11.61c0,.74.35,1.11,1.07,1.11a1.67,1.67,0,0,0,.88-.26A1.78,1.78,0,0,0,58.4,58l0-1.58Z"/><path class="a4560888-e72e-49f5-8fda-cab8a460a609" d="M64,54.34a.77.77,0,0,0-.27,0,1.4,1.4,0,0,0-1,.44,1.14,1.14,0,0,0-.28.39,1.65,1.65,0,0,0-.08.57v3.82h-1v-4.7a4.07,4.07,0,0,0-.21-1.3l1-.25a.5.5,0,0,1,.06.14,2.13,2.13,0,0,1,.11.37,1.94,1.94,0,0,1,0,.48,2.56,2.56,0,0,1,.8-.74,1.79,1.79,0,0,1,.92-.28,1.29,1.29,0,0,1,.33.06Z"/><path class="a4560888-e72e-49f5-8fda-cab8a460a609" d="M66.81,59.64a1.39,1.39,0,0,1-.32,0,1,1,0,0,1-.73-.26.72.72,0,0,1-.22-.34,1.52,1.52,0,0,1-.08-.53V52.05a5.53,5.53,0,0,0-.15-1.25l1-.19a6.77,6.77,0,0,1,.16,1.45v6.26a1.23,1.23,0,0,0,.07.48.29.29,0,0,0,.28.13l.12,0,.2.62A1.26,1.26,0,0,1,66.81,59.64Z"/><path class="a4560888-e72e-49f5-8fda-cab8a460a609" d="M72.62,57.73a2,2,0,0,1-.16.81,1.93,1.93,0,0,1-.47.63,2.26,2.26,0,0,1-.73.41,2.77,2.77,0,0,1-.94.15,4.71,4.71,0,0,1-1.17-.16,4.08,4.08,0,0,1-1.06-.45l.37-.71A3.62,3.62,0,0,0,70.4,59a1.36,1.36,0,0,0,.9-.28,1,1,0,0,0,.34-.78.89.89,0,0,0-.24-.66,1.49,1.49,0,0,0-.77-.35l-.76-.16a2,2,0,0,1-1.15-.61,1.52,1.52,0,0,1-.4-1.08,1.88,1.88,0,0,1,.16-.76,1.85,1.85,0,0,1,.45-.59,2.09,2.09,0,0,1,.69-.38,2.41,2.41,0,0,1,.87-.15,4.26,4.26,0,0,1,1,.13,4.14,4.14,0,0,1,.88.35l-.35.7c-.27-.13-.53-.23-.77-.32a2.43,2.43,0,0,0-.77-.12,1.2,1.2,0,0,0-.84.28.94.94,0,0,0-.31.74.85.85,0,0,0,.19.58,1.31,1.31,0,0,0,.69.32L71,56C72.08,56.25,72.62,56.82,72.62,57.73Z"/><path class="a4560888-e72e-49f5-8fda-cab8a460a609" d="M76.85,54.34a.84.84,0,0,0-.27,0,1.36,1.36,0,0,0-1,.44,1.19,1.19,0,0,0-.29.39,2,2,0,0,0-.07.57v3.82h-1v-4.7a4.07,4.07,0,0,0-.21-1.3l1-.25s0,0,.06.14a2.3,2.3,0,0,1,.1.37,2,2,0,0,1,0,.48,2.53,2.53,0,0,1,.79-.74,1.85,1.85,0,0,1,.93-.28,1.29,1.29,0,0,1,.33.06Z"/><path class="a4560888-e72e-49f5-8fda-cab8a460a609" d="M82.61,59.8a1.91,1.91,0,0,1-.45-.46,1.35,1.35,0,0,1-.21-.52,2.27,2.27,0,0,1-1.93.93,2,2,0,0,1-1-.23,1.48,1.48,0,0,1-.6-.64,1.23,1.23,0,0,1-.12-.41,2.6,2.6,0,0,1,0-.5V53.46l.92-.18v4.43a2.27,2.27,0,0,0,.08.66.76.76,0,0,0,.29.37,1.25,1.25,0,0,0,.35.16,1.4,1.4,0,0,0,.41.05,1.54,1.54,0,0,0,.89-.3,2,2,0,0,0,.68-.81V53.46l.93-.16v4.48a3.11,3.11,0,0,0,.09.87,1.16,1.16,0,0,0,.32.5Z"/><path class="a4560888-e72e-49f5-8fda-cab8a460a609" d="M88.73,59.52V55.31a2.72,2.72,0,0,0,0-.55.74.74,0,0,0-.19-.35.9.9,0,0,0-.29-.18,1.3,1.3,0,0,0-.41-.07,1.83,1.83,0,0,0-.91.27,3.2,3.2,0,0,0-.86.76v4.33H85V52a5,5,0,0,0-.16-1.25l1-.19A6.77,6.77,0,0,1,86,52v1.43c0,.19,0,.47,0,.83a4.47,4.47,0,0,1,.92-.68A2.2,2.2,0,0,1,88,53.3a1.83,1.83,0,0,1,1,.27,1.28,1.28,0,0,1,.57.7,1.63,1.63,0,0,1,.08.37c0,.12,0,.29,0,.51v4.37Z"/><path class="a4560888-e72e-49f5-8fda-cab8a460a609" d="M92.35,56.65v.14a4.26,4.26,0,0,0,.06.76,1.6,1.6,0,0,0,.22.58,1.57,1.57,0,0,0,.66.57,2.22,2.22,0,0,0,2.37-.4l.37.62a2.86,2.86,0,0,1-.94.56,3.22,3.22,0,0,1-1.12.2,2.47,2.47,0,0,1-2-.87,3.61,3.61,0,0,1-.72-2.39,4.08,4.08,0,0,1,.18-1.3,2.85,2.85,0,0,1,.56-1,2.32,2.32,0,0,1,1.84-.85,2.22,2.22,0,0,1,1.67.66,2.6,2.6,0,0,1,.33.43,1.89,1.89,0,0,1,.22.52,5,5,0,0,1,.12.68c0,.27,0,.58,0,.95v.14Zm2.72-1.56a1.86,1.86,0,0,0-.2-.55,1.18,1.18,0,0,0-.46-.39,1.38,1.38,0,0,0-.65-.15c-.89,0-1.36.64-1.41,1.91h2.8A5.26,5.26,0,0,0,95.07,55.09Z"/><path class="a4560888-e72e-49f5-8fda-cab8a460a609" d="M99.56,56.47v-.72h6v.72Z"/><path class="a4560888-e72e-49f5-8fda-cab8a460a609" d="M113.57,59.52H109.4V51.13h1v7.53h3.33Z"/><path class="a4560888-e72e-49f5-8fda-cab8a460a609" d="M115.23,56.65v.14a4.26,4.26,0,0,0,.06.76,1.6,1.6,0,0,0,.22.58,1.63,1.63,0,0,0,.66.57,2.23,2.23,0,0,0,2.38-.4l.37.62a3,3,0,0,1-.94.56,3.32,3.32,0,0,1-1.13.2,2.44,2.44,0,0,1-2-.87,3.61,3.61,0,0,1-.72-2.39,4.1,4.1,0,0,1,.17-1.3,2.73,2.73,0,0,1,.57-1,2.3,2.3,0,0,1,1.84-.85,2.21,2.21,0,0,1,1.66.66,2.67,2.67,0,0,1,.34.43,1.89,1.89,0,0,1,.21.52,3.8,3.8,0,0,1,.12.68c0,.27,0,.58,0,.95v.14ZM118,55.09a1.62,1.62,0,0,0-.2-.55,1.23,1.23,0,0,0-.45-.39,1.45,1.45,0,0,0-.66-.15c-.89,0-1.36.64-1.41,1.91H118A4.27,4.27,0,0,0,118,55.09Z"/><path class="a4560888-e72e-49f5-8fda-cab8a460a609" d="M122,51.54a.72.72,0,0,1-.74.74.74.74,0,0,1-.53-.21.72.72,0,0,1-.21-.52.75.75,0,0,1,.21-.54.71.71,0,0,1,.53-.22.72.72,0,0,1,.74.75Zm-1.25,8V53.45l1-.16v6.23Z"/><path class="a4560888-e72e-49f5-8fda-cab8a460a609" d="M128.83,56.4a5.2,5.2,0,0,1-.17,1.35,3.28,3.28,0,0,1-.49,1,2.24,2.24,0,0,1-.77.67,2,2,0,0,1-1,.24,2.09,2.09,0,0,1-1-.24,2.06,2.06,0,0,1-.72-.59c0,.13,0,.24,0,.33a1.07,1.07,0,0,1-.13.33h-1a2.28,2.28,0,0,0,.14-.56,7.85,7.85,0,0,0,0-1V52a5,5,0,0,0-.16-1.25l1-.19a6.81,6.81,0,0,1,.17,1.45v1.43c0,.15,0,.38,0,.67a3.37,3.37,0,0,1,.85-.63,2.15,2.15,0,0,1,.89-.19,2,2,0,0,1,1,.22,2,2,0,0,1,.74.62,2.87,2.87,0,0,1,.46,1A4.69,4.69,0,0,1,128.83,56.4Zm-1-.07a5.38,5.38,0,0,0-.08-1,1.83,1.83,0,0,0-.28-.65,1.18,1.18,0,0,0-.48-.39,1.66,1.66,0,0,0-.66-.14,1.83,1.83,0,0,0-.87.23,2,2,0,0,0-.66.57V58.1a2,2,0,0,0,.66.52,1.86,1.86,0,0,0,.84.21,1.38,1.38,0,0,0,.62-.15,1.09,1.09,0,0,0,.48-.39,2.5,2.5,0,0,0,.3-.72A5.11,5.11,0,0,0,127.79,56.33Z"/><path class="a4560888-e72e-49f5-8fda-cab8a460a609" d="M134.05,59.52v-4.1c0-.16,0-.3,0-.4a1.56,1.56,0,0,0,0-.27.84.84,0,0,0-.07-.19l-.1-.15a.85.85,0,0,0-.68-.26,1.31,1.31,0,0,0-.41.07,2.11,2.11,0,0,0-.45.18,3.68,3.68,0,0,0-.45.28,2.07,2.07,0,0,0-.38.32v4.52h-.92v-4.7a3.5,3.5,0,0,0-.24-1.28l.94-.26.06.14a2,2,0,0,1,.1.35,1.78,1.78,0,0,1,.06.47,2.76,2.76,0,0,1,1.93-1,1.71,1.71,0,0,1,.91.25,1.48,1.48,0,0,1,.59.65,1.83,1.83,0,0,1,.14.71v4.62Z"/><path class="a4560888-e72e-49f5-8fda-cab8a460a609" d="M138.27,51.54a.72.72,0,0,1-.74.74.74.74,0,0,1-.53-.21.72.72,0,0,1-.21-.52A.75.75,0,0,1,137,51a.71.71,0,0,1,.53-.22.72.72,0,0,1,.74.75Zm-1.25,8V53.45l1-.16v6.23Z"/><path class="a4560888-e72e-49f5-8fda-cab8a460a609" d="M143.47,59.52h-4.08v-.74l3.33-4.62h-3.07v-.73h4.08v.78l-3.18,4.57h3.38Z"/><path class="a4560888-e72e-49f5-8fda-cab8a460a609" d="M148.37,59.52V51.13h1v8.39Z"/><path class="a4560888-e72e-49f5-8fda-cab8a460a609" d="M155,59.52v-4.1c0-.16,0-.3,0-.4a1.56,1.56,0,0,0,0-.27.84.84,0,0,0-.07-.19l-.1-.15a.85.85,0,0,0-.68-.26,1.31,1.31,0,0,0-.41.07,2.11,2.11,0,0,0-.45.18,3.68,3.68,0,0,0-.45.28,2.07,2.07,0,0,0-.38.32v4.52h-.92v-4.7a3.5,3.5,0,0,0-.24-1.28l.94-.26s0,0,.06.14a2,2,0,0,1,.1.35,1.78,1.78,0,0,1,.06.47,2.76,2.76,0,0,1,1.93-1,1.71,1.71,0,0,1,.91.25,1.48,1.48,0,0,1,.59.65,1.83,1.83,0,0,1,.14.71v4.62Z"/><path class="a4560888-e72e-49f5-8fda-cab8a460a609" d="M162,57.73a2,2,0,0,1-.17.81,1.93,1.93,0,0,1-.47.63,2.07,2.07,0,0,1-.73.41,2.75,2.75,0,0,1-.93.15,4.85,4.85,0,0,1-1.18-.16,4.23,4.23,0,0,1-1.06-.45l.37-.71a3.64,3.64,0,0,0,1.94.58,1.38,1.38,0,0,0,.91-.28,1,1,0,0,0,.33-.78.93.93,0,0,0-.23-.66,1.49,1.49,0,0,0-.77-.35l-.76-.16a2.05,2.05,0,0,1-1.16-.61,1.56,1.56,0,0,1-.39-1.08,1.73,1.73,0,0,1,.16-.76,1.69,1.69,0,0,1,.44-.59,2.19,2.19,0,0,1,.69-.38,2.5,2.5,0,0,1,.88-.15,4.11,4.11,0,0,1,1,.13,4.23,4.23,0,0,1,.89.35l-.36.7c-.27-.13-.52-.23-.76-.32a2.48,2.48,0,0,0-.77-.12,1.21,1.21,0,0,0-.85.28,1,1,0,0,0-.31.74.85.85,0,0,0,.2.58,1.27,1.27,0,0,0,.68.32l.81.17C161.4,56.25,162,56.82,162,57.73Z"/><path class="a4560888-e72e-49f5-8fda-cab8a460a609" d="M165.85,54.15h-1.28v4a1.13,1.13,0,0,0,.17.71.79.79,0,0,0,.62.19,1.58,1.58,0,0,0,.34,0l.26-.09.14.62a2.32,2.32,0,0,1-1.08.24,1.94,1.94,0,0,1-.44,0,1.48,1.48,0,0,1-.35-.13.89.89,0,0,1-.44-.46,1.81,1.81,0,0,1-.14-.76v-4.2h-.8v-.73h.8c0-.15,0-.32,0-.5s0-.34,0-.5,0-.34.05-.55l1-.22c0,.21-.05.4-.07.57s0,.37,0,.57,0,.42,0,.63h1.54Z"/><path class="a4560888-e72e-49f5-8fda-cab8a460a609" d="M168.77,51.54a.72.72,0,0,1-.74.74.74.74,0,0,1-.53-.21.72.72,0,0,1-.21-.52.75.75,0,0,1,.21-.54.71.71,0,0,1,.53-.22.72.72,0,0,1,.74.75Zm-1.25,8V53.45l1-.16v6.23Z"/><path class="a4560888-e72e-49f5-8fda-cab8a460a609" d="M172.9,54.15h-1.27v4a1.14,1.14,0,0,0,.16.71.79.79,0,0,0,.62.19,1.58,1.58,0,0,0,.34,0l.26-.09.14.62a2.32,2.32,0,0,1-1.08.24,1.94,1.94,0,0,1-.44,0,1.48,1.48,0,0,1-.35-.13.89.89,0,0,1-.44-.46,1.81,1.81,0,0,1-.14-.76v-4.2h-.8v-.73h.8c0-.15,0-.32,0-.5s0-.34,0-.5,0-.34.05-.55l1-.22c0,.21,0,.4-.07.57s0,.37,0,.57,0,.42,0,.63h1.54Z"/><path class="a4560888-e72e-49f5-8fda-cab8a460a609" d="M178.85,59.8a2.12,2.12,0,0,1-.45-.46,1.35,1.35,0,0,1-.21-.52,2.27,2.27,0,0,1-1.93.93,2,2,0,0,1-1-.23,1.48,1.48,0,0,1-.6-.64,1.23,1.23,0,0,1-.12-.41,2.6,2.6,0,0,1,0-.5V53.46l.92-.18v4.43a2.27,2.27,0,0,0,.08.66.76.76,0,0,0,.29.37,1.25,1.25,0,0,0,.35.16,1.4,1.4,0,0,0,.41.05,1.56,1.56,0,0,0,.89-.3,2,2,0,0,0,.68-.81V53.46l.92-.16v4.48a2.71,2.71,0,0,0,.1.87,1.16,1.16,0,0,0,.32.5Z"/><path class="a4560888-e72e-49f5-8fda-cab8a460a609" d="M183.5,54.15h-1.27v4a1.14,1.14,0,0,0,.16.71A.79.79,0,0,0,183,59a1.58,1.58,0,0,0,.34,0l.26-.09.14.62a2.32,2.32,0,0,1-1.08.24,1.94,1.94,0,0,1-.44,0,1.48,1.48,0,0,1-.35-.13.89.89,0,0,1-.44-.46,1.81,1.81,0,0,1-.14-.76v-4.2h-.8v-.73h.8c0-.15,0-.32,0-.5a4,4,0,0,1,0-.5c0-.16,0-.34.05-.55l1-.22c0,.21,0,.4-.07.57s0,.37,0,.57,0,.42,0,.63h1.54Z"/><path class="a4560888-e72e-49f5-8fda-cab8a460a609" d="M186,56.65v.14a4.26,4.26,0,0,0,.06.76,1.43,1.43,0,0,0,.22.58,1.51,1.51,0,0,0,.66.57,2.22,2.22,0,0,0,2.37-.4l.37.62a2.86,2.86,0,0,1-.94.56,3.28,3.28,0,0,1-1.13.2,2.46,2.46,0,0,1-2-.87,3.61,3.61,0,0,1-.72-2.39,4.41,4.41,0,0,1,.17-1.3,3,3,0,0,1,.57-1,2.32,2.32,0,0,1,1.84-.85,2.24,2.24,0,0,1,1.67.66,2.6,2.6,0,0,1,.33.43,2.26,2.26,0,0,1,.22.52,3.87,3.87,0,0,1,.11.68,8.77,8.77,0,0,1,0,.95v.14Zm2.72-1.56a1.86,1.86,0,0,0-.2-.55,1.18,1.18,0,0,0-.46-.39,1.38,1.38,0,0,0-.65-.15c-.89,0-1.36.64-1.41,1.91h2.8A5.26,5.26,0,0,0,188.67,55.09Z"/><path class="a4560888-e72e-49f5-8fda-cab8a460a609" d="M197.27,51.68a2.85,2.85,0,0,0-.42-.19,1.37,1.37,0,0,0-.49-.09c-.55,0-.83.36-.83,1.08v.94h1.69l-.29.73h-1.4v5.37h-1V54.15H194v-.73h.59v-1a2.49,2.49,0,0,1,.06-.59,1.6,1.6,0,0,1,.17-.42,1.82,1.82,0,0,1,.21-.29l.21-.19a1.77,1.77,0,0,1,1.08-.32,2.46,2.46,0,0,1,1.35.35Z"/><path class="a4560888-e72e-49f5-8fda-cab8a460a609" d="M202.91,56.58a4.26,4.26,0,0,1-.2,1.35,2.75,2.75,0,0,1-.55,1,2.22,2.22,0,0,1-.83.59,2.6,2.6,0,0,1-1.06.2,2.35,2.35,0,0,1-2-.87,3.72,3.72,0,0,1-.69-2.38,3.63,3.63,0,0,1,.69-2.35,2.36,2.36,0,0,1,1.92-.86,2.5,2.5,0,0,1,1.28.31,2.72,2.72,0,0,1,.82.76,3.18,3.18,0,0,1,.43,1A5.5,5.5,0,0,1,202.91,56.58Zm-1.11.08a4.36,4.36,0,0,0-.28-1.83,1.31,1.31,0,0,0-.56-.6,1.54,1.54,0,0,0-.74-.19,1.6,1.6,0,0,0-.75.18,1.11,1.11,0,0,0-.5.48,2.84,2.84,0,0,0-.23.66,6.37,6.37,0,0,0,0,2.12,2.62,2.62,0,0,0,.27.81,1.25,1.25,0,0,0,.51.45,1.66,1.66,0,0,0,.73.17,1.42,1.42,0,0,0,.83-.24,1.4,1.4,0,0,0,.5-.68,2.89,2.89,0,0,0,.14-.58A5.2,5.2,0,0,0,201.8,56.66Z"/><path class="a4560888-e72e-49f5-8fda-cab8a460a609" d="M207.27,54.34a.77.77,0,0,0-.27,0,1.4,1.4,0,0,0-1,.44,1.14,1.14,0,0,0-.28.39,1.65,1.65,0,0,0-.08.57v3.82h-1v-4.7a4.07,4.07,0,0,0-.21-1.3l1-.25a.5.5,0,0,1,.06.14,2.4,2.4,0,0,1,.14.85,2.64,2.64,0,0,1,.79-.74,1.85,1.85,0,0,1,.93-.28,1.29,1.29,0,0,1,.33.06Z"/><path class="a4560888-e72e-49f5-8fda-cab8a460a609" d="M211.61,59.52V51.13h1v8.39Z"/><path class="a4560888-e72e-49f5-8fda-cab8a460a609" d="M218.23,59.52v-4.1c0-.16,0-.3,0-.4a1.56,1.56,0,0,0,0-.27.84.84,0,0,0-.07-.19,1.3,1.3,0,0,0-.1-.15.87.87,0,0,0-.68-.26,1.31,1.31,0,0,0-.41.07,2.11,2.11,0,0,0-.45.18,2.6,2.6,0,0,0-.45.28,2.07,2.07,0,0,0-.38.32v4.52h-.92v-4.7a3.5,3.5,0,0,0-.24-1.28l.93-.26a.76.76,0,0,1,.07.14,3.48,3.48,0,0,1,.1.35,1.78,1.78,0,0,1,.06.47,2.76,2.76,0,0,1,1.93-1,1.65,1.65,0,0,1,.9.25,1.42,1.42,0,0,1,.59.65,1.67,1.67,0,0,1,.15.71v4.62Z"/><path class="a4560888-e72e-49f5-8fda-cab8a460a609" d="M224,51.68a2.85,2.85,0,0,0-.42-.19,1.37,1.37,0,0,0-.49-.09c-.55,0-.83.36-.83,1.08v.94H224l-.29.73h-1.4v5.37h-1V54.15h-.59v-.73h.59v-1a2.45,2.45,0,0,1,.07-.59,1.6,1.6,0,0,1,.17-.42,1.82,1.82,0,0,1,.21-.29l.21-.19a1.77,1.77,0,0,1,1.08-.32,2.46,2.46,0,0,1,1.35.35Z"/><path class="a4560888-e72e-49f5-8fda-cab8a460a609" d="M229.74,56.58a4.26,4.26,0,0,1-.2,1.35,2.75,2.75,0,0,1-.55,1,2.22,2.22,0,0,1-.83.59,2.6,2.6,0,0,1-1.06.2,2.33,2.33,0,0,1-1.95-.87,4.4,4.4,0,0,1,0-4.73,2.33,2.33,0,0,1,1.92-.86,2.5,2.5,0,0,1,1.28.31,2.72,2.72,0,0,1,.82.76,2.94,2.94,0,0,1,.42,1A5,5,0,0,1,229.74,56.58Zm-1.11.08a4.36,4.36,0,0,0-.28-1.83,1.31,1.31,0,0,0-.56-.6,1.54,1.54,0,0,0-.74-.19,1.6,1.6,0,0,0-.75.18,1.19,1.19,0,0,0-.51.48,2.84,2.84,0,0,0-.22.66,5.08,5.08,0,0,0-.07.94,6.18,6.18,0,0,0,.1,1.18,2.36,2.36,0,0,0,.28.81,1.13,1.13,0,0,0,.51.45,1.63,1.63,0,0,0,.73.17,1.39,1.39,0,0,0,.82-.24,1.42,1.42,0,0,0,.51-.68,3.77,3.77,0,0,0,.14-.58A5.2,5.2,0,0,0,228.63,56.66Z"/><path class="a4560888-e72e-49f5-8fda-cab8a460a609" d="M234.09,54.34a.84.84,0,0,0-.27,0,1.36,1.36,0,0,0-1,.44,1.19,1.19,0,0,0-.29.39,1.69,1.69,0,0,0-.07.57v3.82h-1v-4.7a4.07,4.07,0,0,0-.21-1.3l1-.25s0,0,.06.14a2.3,2.3,0,0,1,.1.37,2,2,0,0,1,0,.48,2.53,2.53,0,0,1,.79-.74,1.85,1.85,0,0,1,.93-.28,1.29,1.29,0,0,1,.33.06Z"/><path class="a4560888-e72e-49f5-8fda-cab8a460a609" d="M242.22,59.52V55c0-.59-.26-.89-.79-.89a1.32,1.32,0,0,0-.78.25,9.31,9.31,0,0,0-.84.69v4.45h-1V55.19a2,2,0,0,0,0-.46.67.67,0,0,0-.14-.32.76.76,0,0,0-.62-.25,1.61,1.61,0,0,0-.72.19,4.92,4.92,0,0,0-.84.62v4.55h-.92V54.8a3.86,3.86,0,0,0-.22-1.3l.93-.22a.53.53,0,0,1,.06.13,2.46,2.46,0,0,1,.11.35,1.58,1.58,0,0,1,0,.43,2.36,2.36,0,0,1,.36-.34,2.66,2.66,0,0,1,.45-.29,2.33,2.33,0,0,1,.49-.21,1.44,1.44,0,0,1,.49-.08,1.54,1.54,0,0,1,.85.26,1.42,1.42,0,0,1,.57.76,3.88,3.88,0,0,1,1-.75,2.17,2.17,0,0,1,1-.27,1.46,1.46,0,0,1,1.12.46,1.68,1.68,0,0,1,.42,1.19v4.6Z"/><path class="a4560888-e72e-49f5-8fda-cab8a460a609" d="M249.34,59.78a1.19,1.19,0,0,1-.53-.34,1.45,1.45,0,0,1-.3-.56,2.79,2.79,0,0,1-.84.63,2,2,0,0,1-.92.19,2.4,2.4,0,0,1-.94-.16,1.66,1.66,0,0,1-.6-.4,1.37,1.37,0,0,1-.32-.56,2.27,2.27,0,0,1-.09-.62,1.83,1.83,0,0,1,.85-1.62,4.16,4.16,0,0,1,2.39-.58h.43v-.42a4.6,4.6,0,0,0,0-.61.61.61,0,0,0-.17-.34.81.81,0,0,0-.34-.25,1.15,1.15,0,0,0-.48-.08,2.62,2.62,0,0,0-.55,0,3.47,3.47,0,0,0-.55.16l-.49.23a2.5,2.5,0,0,0-.38.27l-.48-.69a4.52,4.52,0,0,1,2.57-.82,1.64,1.64,0,0,1,1.69,1,2.27,2.27,0,0,1,.12.59,6.24,6.24,0,0,1,0,.76l0,2c0,.25,0,.45,0,.62a1.52,1.52,0,0,0,.07.41.87.87,0,0,0,.15.27,1,1,0,0,0,.27.2Zm-1.13-3.36H248a4,4,0,0,0-1,.1,1.83,1.83,0,0,0-.66.28,1.09,1.09,0,0,0-.36.46,1.66,1.66,0,0,0-.11.61A1,1,0,0,0,246.91,59a1.64,1.64,0,0,0,.88-.26,1.78,1.78,0,0,0,.62-.69l0-1.58Z"/><path class="a4560888-e72e-49f5-8fda-cab8a460a609" d="M253.67,54.15h-1.28v4a1.14,1.14,0,0,0,.16.71.79.79,0,0,0,.62.19,1.52,1.52,0,0,0,.34,0,1.43,1.43,0,0,0,.27-.09l.13.62a2.32,2.32,0,0,1-1.08.24,1.85,1.85,0,0,1-.43,0,1.4,1.4,0,0,1-.36-.13.93.93,0,0,1-.44-.46,1.82,1.82,0,0,1-.13-.76v-4.2h-.8v-.73h.8c0-.15,0-.32,0-.5s0-.34,0-.5,0-.34.05-.55l1-.22q0,.32-.06.57c0,.18,0,.37-.05.57s0,.42,0,.63H254Z"/><path class="a4560888-e72e-49f5-8fda-cab8a460a609" d="M256.56,51.54a.74.74,0,1,1-1.48,0,.75.75,0,0,1,.21-.54.69.69,0,0,1,.53-.22.72.72,0,0,1,.74.75Zm-1.25,8V53.45l1-.16v6.23Z"/><path class="a4560888-e72e-49f5-8fda-cab8a460a609" d="M263.17,56.58a4.27,4.27,0,0,1-.19,1.35,3.09,3.09,0,0,1-.55,1,2.3,2.3,0,0,1-.83.59,2.63,2.63,0,0,1-1.06.2,2.35,2.35,0,0,1-2-.87,3.72,3.72,0,0,1-.69-2.38,3.58,3.58,0,0,1,.7-2.35,2.33,2.33,0,0,1,1.91-.86,2.45,2.45,0,0,1,1.28.31,2.76,2.76,0,0,1,.83.76,2.94,2.94,0,0,1,.42,1A5,5,0,0,1,263.17,56.58Zm-1.1.08a4.53,4.53,0,0,0-.28-1.83,1.36,1.36,0,0,0-.56-.6,1.55,1.55,0,0,0-.75-.19,1.53,1.53,0,0,0-.74.18,1.14,1.14,0,0,0-.51.48,2.44,2.44,0,0,0-.22.66,5.08,5.08,0,0,0-.07.94,6.18,6.18,0,0,0,.1,1.18,2.36,2.36,0,0,0,.28.81,1.13,1.13,0,0,0,.51.45,1.63,1.63,0,0,0,.73.17,1.39,1.39,0,0,0,.82-.24,1.34,1.34,0,0,0,.5-.68,2.34,2.34,0,0,0,.14-.58A5,5,0,0,0,262.07,56.66Z"/><path class="a4560888-e72e-49f5-8fda-cab8a460a609" d="M268.46,59.52v-4.1c0-.16,0-.3,0-.4s0-.2,0-.27a.84.84,0,0,0-.07-.19l-.1-.15a.87.87,0,0,0-.68-.26,1.31,1.31,0,0,0-.41.07,2.19,2.19,0,0,0-.46.18,3.68,3.68,0,0,0-.45.28,3.05,3.05,0,0,0-.38.32v4.52h-.92v-4.7a3.71,3.71,0,0,0-.23-1.28l.93-.26a.5.5,0,0,1,.06.14,1.83,1.83,0,0,1,.11.35,1.78,1.78,0,0,1,.05.47,2.77,2.77,0,0,1,1.93-1,1.66,1.66,0,0,1,.91.25,1.42,1.42,0,0,1,.59.65,1.67,1.67,0,0,1,.15.71v4.62Z"/><path class="a4560888-e72e-49f5-8fda-cab8a460a609" d="M274.29,59.52V51.13h1v8.39Z"/><path class="a4560888-e72e-49f5-8fda-cab8a460a609" d="M281,59.52v-4.1c0-.16,0-.3,0-.4a1.56,1.56,0,0,0,0-.27.85.85,0,0,0-.06-.19l-.11-.15a.85.85,0,0,0-.68-.26,1.35,1.35,0,0,0-.41.07,2.11,2.11,0,0,0-.45.18,3.68,3.68,0,0,0-.45.28,2.47,2.47,0,0,0-.38.32v4.52h-.92v-4.7a3.71,3.71,0,0,0-.23-1.28l.93-.26a.5.5,0,0,1,.06.14,2,2,0,0,1,.1.35,1.78,1.78,0,0,1,.06.47,2.76,2.76,0,0,1,1.93-1,1.66,1.66,0,0,1,.91.25,1.48,1.48,0,0,1,.59.65,1.84,1.84,0,0,1,.15.71v4.62Z"/><path class="a4560888-e72e-49f5-8fda-cab8a460a609" d="M286.7,51.68a4.28,4.28,0,0,0-.42-.19,1.41,1.41,0,0,0-.49-.09q-.84,0-.84,1.08v.94h1.7l-.3.73H285v5.37h-1V54.15h-.59v-.73H284v-1a2.13,2.13,0,0,1,.23-1,1.38,1.38,0,0,1,.22-.29,1.71,1.71,0,0,1,.21-.19,1.74,1.74,0,0,1,1.07-.32,2.46,2.46,0,0,1,1.35.35Z"/><path class="a4560888-e72e-49f5-8fda-cab8a460a609" d="M290.2,54.34a.77.77,0,0,0-.27,0,1.36,1.36,0,0,0-1,.44,1,1,0,0,0-.28.39,1.44,1.44,0,0,0-.08.57v3.82h-1v-4.7a4.07,4.07,0,0,0-.21-1.3l1-.25a.5.5,0,0,1,.06.14,2.3,2.3,0,0,1,.1.37,2,2,0,0,1,0,.48,2.53,2.53,0,0,1,.79-.74,1.85,1.85,0,0,1,.93-.28,1.29,1.29,0,0,1,.33.06Z"/><path class="a4560888-e72e-49f5-8fda-cab8a460a609" d="M295.64,59.78a1.19,1.19,0,0,1-.53-.34,1.45,1.45,0,0,1-.3-.56,2.79,2.79,0,0,1-.84.63,2,2,0,0,1-.92.19,2.33,2.33,0,0,1-.94-.16,1.7,1.7,0,0,1-.61-.4,1.35,1.35,0,0,1-.31-.56,2.29,2.29,0,0,1-.1-.62,1.85,1.85,0,0,1,.85-1.62,4.22,4.22,0,0,1,2.4-.58h.43v-.42a4.6,4.6,0,0,0,0-.61.61.61,0,0,0-.17-.34.78.78,0,0,0-.35-.25,1.15,1.15,0,0,0-.48-.08,2.59,2.59,0,0,0-.54,0,3.47,3.47,0,0,0-.55.16c-.18.07-.34.15-.5.23a2.37,2.37,0,0,0-.37.27l-.48-.69a4.52,4.52,0,0,1,2.56-.82,1.62,1.62,0,0,1,1.69,1,1.91,1.91,0,0,1,.13.59c0,.22,0,.48,0,.76l-.05,2c0,.25,0,.45,0,.62a1.52,1.52,0,0,0,.07.41.7.7,0,0,0,.15.27,1,1,0,0,0,.27.2Zm-1.13-3.36h-.25a4,4,0,0,0-1,.1,1.75,1.75,0,0,0-.66.28,1,1,0,0,0-.36.46,1.66,1.66,0,0,0-.11.61c0,.74.35,1.11,1.07,1.11a1.67,1.67,0,0,0,.88-.26,1.78,1.78,0,0,0,.62-.69l0-1.58Z"/><path class="a4560888-e72e-49f5-8fda-cab8a460a609" d="M301.71,57.73a2,2,0,0,1-.17.81,1.8,1.8,0,0,1-.47.63,2.12,2.12,0,0,1-.72.41,2.81,2.81,0,0,1-.94.15,4.85,4.85,0,0,1-1.18-.16,4.23,4.23,0,0,1-1.06-.45l.37-.71a3.64,3.64,0,0,0,1.94.58,1.38,1.38,0,0,0,.91-.28,1,1,0,0,0,.34-.78.89.89,0,0,0-.24-.66,1.54,1.54,0,0,0-.77-.35l-.76-.16a2.05,2.05,0,0,1-1.16-.61,1.56,1.56,0,0,1-.39-1.08,1.73,1.73,0,0,1,.16-.76,1.69,1.69,0,0,1,.44-.59,2.31,2.31,0,0,1,.69-.38,2.5,2.5,0,0,1,.88-.15,4.11,4.11,0,0,1,1,.13,4.23,4.23,0,0,1,.89.35l-.36.7c-.27-.13-.52-.23-.76-.32a2.48,2.48,0,0,0-.77-.12,1.21,1.21,0,0,0-.85.28.94.94,0,0,0-.31.74.85.85,0,0,0,.2.58,1.31,1.31,0,0,0,.68.32l.81.17C301.16,56.25,301.71,56.82,301.71,57.73Z"/><path class="a4560888-e72e-49f5-8fda-cab8a460a609" d="M305.77,54.15h-1.28v4a1.13,1.13,0,0,0,.17.71.79.79,0,0,0,.62.19,1.58,1.58,0,0,0,.34,0l.26-.09.14.62a2.32,2.32,0,0,1-1.08.24,1.94,1.94,0,0,1-.44,0,1.48,1.48,0,0,1-.35-.13.89.89,0,0,1-.44-.46,1.81,1.81,0,0,1-.14-.76v-4.2h-.8v-.73h.8c0-.15,0-.32,0-.5s0-.34,0-.5,0-.34.05-.55l1-.22q0,.32-.06.57c0,.18,0,.37,0,.57s0,.42,0,.63h1.54Z"/><path class="a4560888-e72e-49f5-8fda-cab8a460a609" d="M309.92,54.34a.77.77,0,0,0-.27,0,1.4,1.4,0,0,0-1,.44,1.14,1.14,0,0,0-.28.39,1.69,1.69,0,0,0-.07.57v3.82h-1v-4.7a4.07,4.07,0,0,0-.21-1.3l1-.25.07.14c0,.08.06.21.1.37a2.59,2.59,0,0,1,0,.48,2.53,2.53,0,0,1,.79-.74,1.83,1.83,0,0,1,.93-.28,1.29,1.29,0,0,1,.33.06Z"/><path class="a4560888-e72e-49f5-8fda-cab8a460a609" d="M315.67,59.8a2.39,2.39,0,0,1-.45-.46,1.53,1.53,0,0,1-.21-.52,2.26,2.26,0,0,1-1.93.93,1.91,1.91,0,0,1-1-.23,1.5,1.5,0,0,1-.61-.64,2,2,0,0,1-.12-.41,3.75,3.75,0,0,1,0-.5V53.46l.93-.18v4.43a2,2,0,0,0,.08.66.7.7,0,0,0,.29.37,1.13,1.13,0,0,0,.35.16,1.33,1.33,0,0,0,.4.05,1.57,1.57,0,0,0,.9-.3,2.08,2.08,0,0,0,.68-.81V53.46l.92-.16v4.48a3.11,3.11,0,0,0,.09.87,1.1,1.1,0,0,0,.33.5Z"/><path class="a4560888-e72e-49f5-8fda-cab8a460a609" d="M321.29,59.5a2.64,2.64,0,0,1-1,.18,2.21,2.21,0,0,1-1.95-.92,3.15,3.15,0,0,1-.44-1,4.79,4.79,0,0,1-.14-1.21A4.14,4.14,0,0,1,318,55a3,3,0,0,1,.65-1,2.29,2.29,0,0,1,1.66-.71,2.06,2.06,0,0,1,.95.2A4.51,4.51,0,0,1,322,54l-.53.67a2.43,2.43,0,0,0-.57-.38,1.34,1.34,0,0,0-.6-.11,1.32,1.32,0,0,0-.67.18,1.18,1.18,0,0,0-.48.51,4.36,4.36,0,0,0-.35,2,2.69,2.69,0,0,0,.39,1.58,1.29,1.29,0,0,0,1.12.54,1.68,1.68,0,0,0,1.32-.66l.53.61A3.19,3.19,0,0,1,321.29,59.5Z"/><path class="a4560888-e72e-49f5-8fda-cab8a460a609" d="M326,54.15h-1.28v4a1.13,1.13,0,0,0,.17.71.79.79,0,0,0,.62.19,1.58,1.58,0,0,0,.34,0l.26-.09.14.62a2.37,2.37,0,0,1-1.09.24,1.91,1.91,0,0,1-.43,0,1.48,1.48,0,0,1-.35-.13,1,1,0,0,1-.45-.46,2,2,0,0,1-.13-.76v-4.2H323v-.73h.8c0-.15,0-.32,0-.5s0-.34,0-.5,0-.34.06-.55l1-.22q0,.32-.06.57c0,.18,0,.37,0,.57s0,.42,0,.63h1.54Z"/><path class="a4560888-e72e-49f5-8fda-cab8a460a609" d="M331.9,59.8a2.39,2.39,0,0,1-.45-.46,1.35,1.35,0,0,1-.21-.52,2.27,2.27,0,0,1-1.93.93,2,2,0,0,1-1-.23,1.48,1.48,0,0,1-.6-.64,1.23,1.23,0,0,1-.12-.41,2.6,2.6,0,0,1,0-.5V53.46l.92-.18v4.43a2.27,2.27,0,0,0,.08.66.76.76,0,0,0,.29.37,1.25,1.25,0,0,0,.35.16,1.4,1.4,0,0,0,.41.05,1.56,1.56,0,0,0,.89-.3,2,2,0,0,0,.68-.81V53.46l.92-.16v4.48a3,3,0,0,0,.1.87,1.16,1.16,0,0,0,.32.5Z"/><path class="a4560888-e72e-49f5-8fda-cab8a460a609" d="M336.93,54.34a.77.77,0,0,0-.27,0,1.36,1.36,0,0,0-1,.44,1.06,1.06,0,0,0-.29.39,1.69,1.69,0,0,0-.07.57v3.82h-1v-4.7a4.07,4.07,0,0,0-.21-1.3l1-.25a.76.76,0,0,1,.07.14c0,.08.06.21.1.37a2.59,2.59,0,0,1,0,.48,2.53,2.53,0,0,1,.79-.74,1.83,1.83,0,0,1,.93-.28,1.29,1.29,0,0,1,.33.06Z"/><path class="a4560888-e72e-49f5-8fda-cab8a460a609" d="M338.64,56.65v.14a3.45,3.45,0,0,0,.07.76,1.43,1.43,0,0,0,.22.58,1.51,1.51,0,0,0,.66.57,2.05,2.05,0,0,0,.87.18,2.12,2.12,0,0,0,1.5-.58l.37.62a3,3,0,0,1-.94.56,3.32,3.32,0,0,1-1.13.2,2.46,2.46,0,0,1-2-.87,3.61,3.61,0,0,1-.72-2.39,4.41,4.41,0,0,1,.17-1.3,2.88,2.88,0,0,1,.57-1,2.3,2.3,0,0,1,1.84-.85,2.28,2.28,0,0,1,2,1.09,1.89,1.89,0,0,1,.21.52,3.08,3.08,0,0,1,.12.68,8.77,8.77,0,0,1,0,.95v.14Zm2.72-1.56a1.62,1.62,0,0,0-.2-.55,1.15,1.15,0,0,0-.45-.39,1.44,1.44,0,0,0-.65-.15c-.9,0-1.37.64-1.42,1.91h2.8A3.59,3.59,0,0,0,341.36,55.09Z"/></g></g></g></g><g id="ab769d21-bfb8-4eea-b32e-065de0a7e036" data-name="bildmarke"><g id="b92a7766-42de-48ba-9f9c-c9ca61db955f" data-name="farbig"><path class="a4560888-e72e-49f5-8fda-cab8a460a609" d="M13.17,26.57l-2.68,6.3A17.13,17.13,0,0,1,23.88,1.34L21.2,7.65a10.28,10.28,0,1,0-8,18.92"/><path class="bef6f88a-cb25-4e17-96da-37f5673ba186" d="M17.18,20.53a3.43,3.43,0,1,0-3.42-3.42,3.43,3.43,0,0,0,3.42,3.42"/></g></g></svg>